<?xml version="1.0" encoding="UTF-8" standalone="no"?>
<!-- Created with Inkscape (http://www.inkscape.org/) -->

<svg
   version="1.1"
   id="svg2"
   width="1160.3147"
   height="831.49597"
   viewBox="0 0 1160.3147 831.49597"
   sodipodi:docname="logo.ai"
   xmlns:inkscape="http://www.inkscape.org/namespaces/inkscape"
   xmlns:sodipodi="http://sodipodi.sourceforge.net/DTD/sodipodi-0.dtd"
   xmlns="http://www.w3.org/2000/svg"
   xmlns:svg="http://www.w3.org/2000/svg">
  <defs
     id="defs6">
    <linearGradient
       x1="0"
       y1="0"
       x2="1"
       y2="0"
       gradientUnits="userSpaceOnUse"
       gradientTransform="matrix(217.67821,0,0,-217.67821,318.61636,352.22739)"
       spreadMethod="pad"
       id="linearGradient32">
      <stop
         style="stop-opacity:1;stop-color:#cbaad0"
         offset="0"
         id="stop22" />
      <stop
         style="stop-opacity:1;stop-color:#cbaad0"
         offset="0.5038025"
         id="stop24" />
      <stop
         style="stop-opacity:1;stop-color:#cbaad0"
         offset="0.506518"
         id="stop26" />
      <stop
         style="stop-opacity:1;stop-color:#90d1c5"
         offset="0.99735439"
         id="stop28" />
      <stop
         style="stop-opacity:1;stop-color:#90d1c5"
         offset="1"
         id="stop30" />
    </linearGradient>
    <clipPath
       clipPathUnits="userSpaceOnUse"
       id="clipPath42">
      <path
         d="M 0,623.622 H 870.236 V 0 H 0 Z"
         id="path40" />
    </clipPath>
  </defs>
  <sodipodi:namedview
     id="namedview4"
     pagecolor="#ffffff"
     bordercolor="#000000"
     borderopacity="0.25"
     inkscape:showpageshadow="2"
     inkscape:pageopacity="0.0"
     inkscape:pagecheckerboard="0"
     inkscape:deskcolor="#d1d1d1" />
  <g
     id="g8"
     inkscape:groupmode="layer"
     inkscape:label="logo"
     transform="matrix(1.3333333,0,0,-1.3333333,0,831.496)">
    <g
       id="g10">
      <g
         id="g12">
        <g
           id="g18">
          <g
             id="g20">
            <path
               d="m 389.516,427.658 c 0,0 -8.871,-0.786 -8.825,-8.254 v 0 c 0.039,-6.39 7.781,-8.081 8.73,-8.264 v 0 c 0.063,-0.013 0.113,-0.016 0.178,-0.016 v 0 c 1.067,0.019 12.129,-0.192 19.568,-16.5 v 0 c 2.424,-5.303 4.847,-10.606 7.271,-15.909 v 0 c 5.353,-11.712 10.707,-23.425 16.06,-35.136 v 0 c 0.818,-1.792 1.637,-3.582 2.455,-5.373 v 0 c -1.885,-4.753 -3.772,-9.505 -5.657,-14.257 v 0 c -3.106,-7.825 -6.211,-15.65 -9.316,-23.475 v 0 c -0.22,-0.553 -0.439,-1.105 -0.658,-1.658 v 0 c 0,0 -3.056,-7.661 -10.78,-7.661 v 0 c -7.116,0 -10.524,7.661 -10.524,7.661 v 0 l -39.258,86.101 c 0,0 -0.278,0.617 -0.836,1.655 v 0 c 0,0 -9.676,22.068 -31.026,18.477 v 0 c 0,0 -8.282,-1.233 -8.282,-8.282 v 0 c 0,-7.915 8.282,-8.281 8.282,-8.281 v 0 c 0,0 14.796,1.109 22.816,-17.047 v 0 c 3.004,-6.61 6.009,-13.218 9.013,-19.827 v 0 l 17.134,-37.69 c 3.604,-7.929 6.827,-16.209 10.91,-23.908 v 0 c 4.372,-8.246 13.123,-13.286 22.397,-13.31 v 0 c 9.894,-0.025 18.264,6.644 22.206,15.441 v 0 c 1.351,3.014 2.472,6.153 3.69,9.222 v 0 c 2.592,6.528 5.184,13.056 7.775,19.585 v 0 c 1.975,-4.32 3.949,-8.64 5.923,-12.96 v 0 c 5.791,-12.669 12.402,-31.403 29.601,-31.349 v 0 c 0,0 14.704,-1.732 22.515,14.051 v 0 l 32.016,80.649 -0.211,-0.153 c 0,0 16.303,38.1 -20.366,52.743 v 0 c -15.503,6.191 -31.821,3.745 -43.343,-8.65 v 0 c -6.196,-6.665 -8.972,-13.962 -12.211,-22.122 v 0 c -4.259,-10.732 -8.518,-21.464 -12.778,-32.196 v 0 c -0.71,-1.791 -1.421,-3.583 -2.132,-5.374 v 0 c -5.359,11.753 -10.718,23.508 -16.078,35.262 v 0 l -6.616,14.511 c 0,0 -8.603,22.502 -26.597,22.504 v 0 c -0.988,0 -2.001,-0.067 -3.046,-0.21 m 74.317,-53.822 c 2.873,7.238 5.746,14.476 8.62,21.715 v 0 l 0.161,0.406 c 0,0 10.033,24.633 33.602,15.445 v 0 c 23.58,-9.194 14.702,-33.495 14.702,-33.495 v 0 c -2.916,-7.348 -5.832,-14.696 -8.748,-22.043 v 0 c -5.208,-13.124 -10.416,-26.247 -15.624,-39.371 v 0 c -2.43,-6.123 -4.38,-12.856 -7.512,-18.653 v 0 c -2.074,-3.838 -5.784,-6.685 -10.274,-6.685 v 0 c -7.466,0.001 -10.808,7.197 -13.474,13.043 v 0 c -1.912,4.195 -3.825,8.391 -5.738,12.587 v 0 l -9.817,21.529 c 4.701,11.84 9.402,23.681 14.102,35.522"
               style="fill:url(#linearGradient32);stroke:none"
               id="path34" />
          </g>
        </g>
      </g>
    </g>
    <g
       id="g36">
      <g
         id="g38"
         clip-path="url(#clipPath42)">
        <g
           id="g44"
           transform="translate(328.5117,234.0697)">
          <path
             d="m 0,0 c -0.342,0.427 -0.897,0.641 -1.665,0.641 -0.342,0 -0.716,-0.043 -1.121,-0.129 -0.406,-0.096 -0.833,-0.224 -1.271,-0.395 0.16,-0.512 0.288,-1.035 0.384,-1.569 0.086,-0.534 0.139,-1.089 0.139,-1.655 0,-2.509 -0.512,-5.178 -1.516,-7.996 -1.003,-2.83 -2.616,-6.075 -4.826,-9.737 -0.555,-0.94 -1.11,-1.74 -1.654,-2.37 -0.556,-0.641 -0.929,-0.961 -1.121,-0.961 -0.321,0 -0.94,0.747 -1.869,2.253 -0.865,1.409 -1.986,3.459 -3.341,6.128 -0.15,0.299 -0.15,0.694 0,0.993 1.569,3.053 2.754,5.637 3.565,7.761 0.844,2.242 1.271,3.951 1.271,5.114 0,0.78 -0.15,1.345 -0.448,1.687 -0.299,0.352 -0.78,0.523 -1.431,0.523 -0.331,0 -0.694,-0.042 -1.078,-0.117 -0.374,-0.075 -0.79,-0.192 -1.239,-0.363 0.128,-0.449 0.224,-0.897 0.299,-1.356 0.064,-0.459 0.096,-0.897 0.096,-1.313 0,-1.089 -0.213,-2.392 -0.662,-3.908 -0.448,-1.526 -1.121,-3.277 -2.028,-5.263 -0.054,0.117 -0.118,0.32 -0.203,0.576 -2.787,7.826 -4.922,11.744 -6.427,11.744 -0.577,0 -1.1,-0.139 -1.559,-0.427 -0.459,-0.288 -0.897,-0.736 -1.292,-1.366 0.993,-0.705 2.061,-2.082 3.182,-4.132 1.089,-1.965 2.445,-4.954 4.078,-8.979 -0.021,-0.331 -0.043,-0.651 -0.064,-0.982 -1.527,-2.69 -2.851,-4.794 -3.982,-6.32 -1.185,-1.613 -2.018,-2.424 -2.488,-2.424 -0.651,0 -2.477,4.249 -5.487,12.748 -0.983,2.765 -1.762,4.943 -2.338,6.544 -0.897,2.488 -1.623,4.057 -2.168,4.708 -0.534,0.662 -1.217,0.983 -2.018,0.983 -0.491,0 -0.971,-0.139 -1.441,-0.417 -0.47,-0.277 -0.961,-0.694 -1.463,-1.249 1.324,-1.014 3.342,-5.167 6.075,-12.448 1.676,-4.463 3.075,-8.05 4.185,-10.741 0.737,-1.847 1.42,-3.288 2.061,-4.302 0.63,-1.015 1.142,-1.516 1.527,-1.516 0.619,0 1.718,1.014 3.309,3.053 1.591,2.039 3.566,4.965 5.915,8.765 0.021,-0.053 0.085,-0.16 0.16,-0.331 3.662,-7.655 5.883,-11.487 6.673,-11.487 0.704,0 3.032,3.213 7.014,9.63 l 0.117,0.213 c 2.136,3.406 3.769,6.683 4.922,9.844 1.164,3.149 1.74,5.893 1.74,8.21 C 0.512,-1.142 0.342,-0.438 0,0"
             style="fill:#7ea6ac;fill-opacity:1;fill-rule:nonzero;stroke:none"
             id="path46" />
        </g>
        <g
           id="g48"
           transform="translate(354.3803,211.0837)">
          <path
             d="m 0,0 c -2.274,-2.391 -5.221,-3.587 -8.829,-3.587 -3.406,0 -6.171,1.131 -8.306,3.395 -2.125,2.253 -3.193,5.189 -3.193,8.786 0,3.726 1.1,6.705 3.299,8.947 2.2,2.242 5.125,3.352 8.776,3.352 3.555,0 6.374,-1.056 8.488,-3.17 C 2.349,15.609 3.406,12.801 3.406,9.278 3.406,5.488 2.274,2.391 0,0 m 3.513,20.21 c -2.84,2.669 -6.609,4.004 -11.328,4.004 -2.402,0 -4.623,-0.374 -6.673,-1.132 -2.039,-0.747 -3.832,-1.847 -5.381,-3.309 -1.58,-1.495 -2.775,-3.203 -3.597,-5.157 -0.812,-1.943 -1.218,-4.046 -1.218,-6.31 0,-2.327 0.385,-4.43 1.143,-6.299 0.758,-1.879 1.879,-3.534 3.384,-4.943 1.409,-1.335 3.032,-2.359 4.869,-3.064 1.847,-0.694 3.822,-1.046 5.936,-1.046 2.519,0 4.825,0.437 6.918,1.313 2.103,0.875 3.993,2.188 5.68,3.939 1.473,1.516 2.594,3.246 3.363,5.178 0.768,1.943 1.163,4.004 1.163,6.193 0,4.42 -1.42,7.964 -4.259,10.633"
             style="fill:#7ea6ac;fill-opacity:1;fill-rule:nonzero;stroke:none"
             id="path50" />
        </g>
        <g
           id="g52"
           transform="translate(378.0497,220.4895)">
          <path
             d="m 0,0 c -1.601,-1.335 -3.811,-1.996 -6.651,-1.996 -0.107,0 -0.278,0 -0.491,0.01 -0.214,0.022 -0.374,0.022 -0.492,0.022 0,1.996 0.032,4.046 0.086,6.181 0.053,2.125 0.139,4.345 0.256,6.673 0.523,0.107 1.036,0.192 1.516,0.245 0.491,0.054 0.972,0.086 1.441,0.086 2.136,0 3.801,-0.491 4.976,-1.484 C 1.815,8.755 2.402,7.356 2.402,5.552 2.402,3.182 1.601,1.335 0,0 m 8.509,-11.434 c -1.164,0.95 -2.53,2.284 -4.11,3.993 -0.203,0.235 -0.513,0.576 -0.919,1.035 -0.8,0.918 -1.537,1.634 -2.21,2.157 -0.587,0.459 -0.491,1.356 0.161,1.719 1.398,0.779 2.498,1.74 3.331,2.893 1.131,1.591 1.708,3.512 1.708,5.744 0,2.552 -0.908,4.559 -2.701,6.053 -1.805,1.484 -4.271,2.232 -7.399,2.232 -0.224,0 -1.313,-0.064 -3.267,-0.182 -1.452,-0.085 -2.861,-0.16 -4.217,-0.213 -0.694,-0.022 -1.153,-0.652 -0.972,-1.314 0.214,-0.768 0.374,-1.697 0.492,-2.775 0.192,-1.762 0.288,-4.484 0.288,-8.157 0,-2.851 -0.064,-5.893 -0.192,-9.128 -0.128,-3.246 -0.203,-5.072 -0.203,-5.488 0,-1.206 0.139,-2.007 0.416,-2.402 0.278,-0.384 0.801,-0.587 1.57,-0.587 0.469,0 0.992,0.096 1.548,0.267 0.565,0.17 1.185,0.437 1.847,0.8 -0.395,0.79 -0.694,1.911 -0.897,3.353 -0.192,1.43 -0.331,3.704 -0.417,6.801 0.481,0.064 0.876,0.096 1.196,0.117 0.321,0.021 0.587,0.032 0.812,0.032 1.943,0 4.558,-1.986 7.836,-5.968 1.078,-1.271 1.922,-2.274 2.552,-3 0.832,-0.982 1.558,-1.698 2.178,-2.125 0.619,-0.427 1.185,-0.651 1.697,-0.651 0.609,0 1.143,0.235 1.58,0.705 0.449,0.459 0.876,1.238 1.281,2.327 -0.822,0.214 -1.815,0.801 -2.989,1.762"
             style="fill:#7ea6ac;fill-opacity:1;fill-rule:nonzero;stroke:none"
             id="path54" />
        </g>
        <g
           id="g56"
           transform="translate(410.0679,211.2332)">
          <path
             d="m 0,0 c -2.392,-2.167 -5.52,-3.256 -9.395,-3.256 -0.673,0 -1.335,0.042 -1.997,0.128 -0.662,0.085 -1.313,0.203 -1.964,0.373 -0.085,1.378 -0.15,2.787 -0.182,4.239 -0.032,1.452 -0.053,2.947 -0.053,4.473 0,1.741 0.021,3.78 0.064,6.129 0.043,2.338 0.107,4.985 0.214,7.932 0.619,0.096 1.27,0.171 1.953,0.214 0.684,0.053 1.41,0.074 2.168,0.074 3.779,0 6.854,-1.089 9.224,-3.267 C 2.391,14.851 3.577,12.021 3.577,8.53 3.577,5.007 2.381,2.167 0,0 m 3.107,19.772 c -3.224,2.584 -7.548,3.876 -12.983,3.876 -0.042,0 -1.025,-0.032 -2.936,-0.107 -1.441,-0.053 -2.882,-0.096 -4.323,-0.117 -0.673,-0.022 -1.164,-0.63 -0.993,-1.292 0.213,-0.876 0.395,-1.954 0.523,-3.235 0.203,-1.964 0.299,-4.634 0.299,-8.018 0,-3.107 -0.064,-6.267 -0.192,-9.459 -0.139,-3.203 -0.203,-4.847 -0.203,-4.943 0,-1.271 0.448,-2.125 1.324,-2.573 0.886,-0.438 2.722,-0.662 5.519,-0.662 2.744,0 5.221,0.352 7.431,1.068 2.221,0.726 4.153,1.783 5.808,3.202 1.793,1.538 3.171,3.321 4.121,5.371 0.95,2.049 1.43,4.238 1.43,6.544 0,4.303 -1.612,7.751 -4.825,10.345"
             style="fill:#7ea6ac;fill-opacity:1;fill-rule:nonzero;stroke:none"
             id="path58" />
        </g>
        <g
           id="g60"
           transform="translate(459.7552,234.0697)">
          <path
             d="m 0,0 c -0.342,0.427 -0.897,0.641 -1.665,0.641 -0.342,0 -0.716,-0.043 -1.121,-0.129 -0.406,-0.096 -0.823,-0.224 -1.271,-0.395 0.16,-0.512 0.288,-1.035 0.384,-1.569 0.086,-0.534 0.139,-1.089 0.139,-1.655 0,-2.509 -0.512,-5.178 -1.516,-7.996 -1.003,-2.83 -2.616,-6.075 -4.826,-9.737 -0.555,-0.94 -1.11,-1.74 -1.654,-2.37 -0.556,-0.641 -0.929,-0.961 -1.121,-0.961 -0.321,0 -0.94,0.747 -1.869,2.253 -0.864,1.409 -1.986,3.459 -3.341,6.128 -0.15,0.299 -0.15,0.694 0,0.993 1.569,3.053 2.754,5.637 3.565,7.761 0.844,2.242 1.271,3.951 1.271,5.114 0,0.78 -0.15,1.345 -0.448,1.687 -0.299,0.352 -0.78,0.523 -1.431,0.523 -0.331,0 -0.694,-0.042 -1.078,-0.117 -0.374,-0.075 -0.79,-0.192 -1.239,-0.363 0.128,-0.449 0.224,-0.897 0.299,-1.356 0.064,-0.459 0.096,-0.897 0.096,-1.313 0,-1.089 -0.213,-2.392 -0.662,-3.908 -0.448,-1.526 -1.121,-3.277 -2.028,-5.263 -0.054,0.117 -0.118,0.32 -0.203,0.576 -2.787,7.826 -4.922,11.744 -6.427,11.744 -0.577,0 -1.1,-0.139 -1.559,-0.427 -0.459,-0.288 -0.897,-0.736 -1.292,-1.366 0.993,-0.705 2.061,-2.082 3.182,-4.132 1.089,-1.965 2.445,-4.954 4.078,-8.979 -0.021,-0.331 -0.043,-0.651 -0.064,-0.982 -1.527,-2.69 -2.851,-4.794 -3.982,-6.32 -1.185,-1.613 -2.018,-2.424 -2.488,-2.424 -0.651,0 -2.477,4.249 -5.487,12.748 -0.983,2.765 -1.762,4.943 -2.338,6.544 -0.897,2.488 -1.623,4.057 -2.168,4.708 -0.534,0.662 -1.217,0.983 -2.018,0.983 -0.491,0 -0.971,-0.139 -1.441,-0.417 -0.47,-0.277 -0.961,-0.694 -1.463,-1.249 1.324,-1.014 3.353,-5.167 6.075,-12.448 1.676,-4.463 3.075,-8.05 4.185,-10.741 0.737,-1.847 1.431,-3.288 2.061,-4.302 0.63,-1.015 1.142,-1.516 1.527,-1.516 0.619,0 1.718,1.014 3.309,3.053 1.591,2.039 3.566,4.965 5.915,8.765 0.021,-0.053 0.085,-0.16 0.16,-0.331 3.662,-7.655 5.883,-11.487 6.673,-11.487 0.704,0 3.032,3.213 7.014,9.63 l 0.128,0.213 c 2.125,3.406 3.758,6.683 4.911,9.844 1.164,3.149 1.74,5.893 1.74,8.21 C 0.512,-1.142 0.342,-0.438 0,0"
             style="fill:#7ea6ac;fill-opacity:1;fill-rule:nonzero;stroke:none"
             id="path62" />
        </g>
        <g
           id="g64"
           transform="translate(514.4712,214.7991)">
          <path
             d="m 0,0 c 0,2.69 0.075,5.84 0.235,9.438 0.16,3.587 0.245,5.85 0.245,6.769 0,1.537 -0.149,2.541 -0.448,3.01 -0.299,0.459 -0.854,0.694 -1.644,0.694 -0.448,0 -0.918,-0.075 -1.431,-0.235 -0.502,-0.16 -1.067,-0.405 -1.697,-0.747 0.672,-1.164 1.153,-2.712 1.441,-4.655 0.288,-1.943 0.438,-4.761 0.438,-8.455 0,-1.132 -0.011,-2.488 -0.032,-4.068 -0.022,-1.591 -0.054,-3.416 -0.096,-5.488 -6.63,7.388 -12.609,14.242 -17.936,20.584 -0.395,0.491 -0.652,0.79 -0.769,0.918 -0.619,0.726 -1.153,1.228 -1.58,1.516 -0.438,0.278 -0.876,0.427 -1.313,0.427 -0.481,0 -0.951,-0.16 -1.42,-0.469 -0.47,-0.321 -1.015,-0.833 -1.634,-1.559 0.897,-0.47 1.516,-1.303 1.868,-2.498 0.353,-1.196 0.534,-3.225 0.534,-6.075 0,-6.054 -0.149,-10.292 -0.459,-12.684 -0.309,-2.402 -0.833,-4.238 -1.58,-5.519 0.555,-0.342 1.11,-0.609 1.666,-0.79 0.555,-0.182 1.089,-0.278 1.601,-0.278 0.801,0 1.335,0.214 1.633,0.641 0.289,0.427 0.438,1.324 0.438,2.701 0,0.331 -0.032,1.27 -0.085,2.818 -0.15,4.815 -0.246,9.428 -0.278,13.837 -0.01,0.971 1.196,1.43 1.858,0.704 2.092,-2.295 4.826,-5.412 8.199,-9.341 4.495,-5.232 8.008,-9.107 10.548,-11.605 L 0.48,-9.224 C 0.32,-7.89 0.203,-6.459 0.117,-4.922 0.043,-3.395 0,-1.751 0,0"
             style="fill:#7ea6ac;fill-opacity:1;fill-rule:nonzero;stroke:none"
             id="path66" />
        </g>
        <g
           id="g68"
           transform="translate(539.1761,211.2332)">
          <path
             d="m 0,0 c -2.381,-2.167 -5.509,-3.256 -9.395,-3.256 -0.662,0 -1.324,0.042 -1.986,0.128 -0.662,0.085 -1.313,0.203 -1.975,0.373 -0.075,1.378 -0.139,2.787 -0.171,4.239 -0.043,1.452 -0.053,2.947 -0.053,4.473 0,1.741 0.021,3.78 0.064,6.129 0.042,2.338 0.107,4.985 0.203,7.932 0.63,0.096 1.281,0.171 1.964,0.214 0.683,0.053 1.399,0.074 2.167,0.074 3.78,0 6.855,-1.089 9.214,-3.267 C 2.402,14.851 3.576,12.021 3.576,8.53 3.576,5.007 2.391,2.167 0,0 m 3.107,19.772 c -3.214,2.584 -7.538,3.876 -12.972,3.876 -0.043,0 -1.025,-0.032 -2.936,-0.107 -1.441,-0.053 -2.882,-0.096 -4.324,-0.117 -0.672,-0.022 -1.164,-0.63 -1.003,-1.292 0.224,-0.876 0.405,-1.954 0.533,-3.235 0.203,-1.964 0.299,-4.634 0.299,-8.018 0,-3.107 -0.064,-6.267 -0.192,-9.459 -0.139,-3.203 -0.203,-4.847 -0.203,-4.943 0,-1.271 0.438,-2.125 1.324,-2.573 0.886,-0.438 2.723,-0.662 5.52,-0.662 2.733,0 5.21,0.352 7.431,1.068 2.22,0.726 4.153,1.783 5.807,3.202 1.794,1.538 3.171,3.321 4.121,5.371 0.951,2.049 1.431,4.238 1.431,6.544 0,4.303 -1.612,7.751 -4.836,10.345"
             style="fill:#7ea6ac;fill-opacity:1;fill-rule:nonzero;stroke:none"
             id="path70" />
        </g>
        <g
           id="g72"
           transform="translate(556.6959,231.3152)">
          <path
             d="m 0,0 c 1.815,0.043 3.053,0.064 3.715,0.064 1.612,0 2.947,-0.085 3.993,-0.245 1.057,-0.161 1.943,-0.406 2.68,-0.737 0.31,0.555 0.534,1.057 0.683,1.516 0.139,0.448 0.214,0.854 0.214,1.217 0,0.641 -0.203,1.078 -0.619,1.335 C 10.249,3.395 9.47,3.523 8.349,3.523 8.189,3.523 7.751,3.502 7.014,3.459 3.577,3.256 0.235,3.15 -3.021,3.15 h -2.648 c 0.278,-1.132 0.48,-2.819 0.619,-5.072 0.128,-2.252 0.192,-5.242 0.192,-8.989 0,-3.769 -0.106,-7.804 -0.331,-12.118 -0.064,-1.195 -0.106,-1.932 -0.106,-2.231 0,-0.555 0.106,-0.94 0.309,-1.164 0.192,-0.224 0.545,-0.331 1.025,-0.331 0.075,0 0.256,0 0.566,0.022 1.473,0.064 2.947,0.096 4.42,0.096 0.651,0 1.644,-0.022 2.989,-0.054 1.335,-0.042 2.328,-0.064 3,-0.064 1.356,0 2.285,0.15 2.776,0.449 0.481,0.299 0.726,0.811 0.726,1.548 0,0.331 -0.064,0.704 -0.203,1.099 -0.128,0.395 -0.352,0.854 -0.651,1.388 -0.822,-0.395 -1.751,-0.672 -2.808,-0.843 -1.046,-0.182 -2.317,-0.267 -3.801,-0.267 -0.779,0 -2.081,0.021 -3.907,0.064 -0.278,0.011 -0.481,0.021 -0.619,0.021 0.064,2.114 0.117,4.057 0.149,5.83 0.043,1.772 0.054,3.437 0.054,5.017 0.32,0.011 0.672,0.022 1.046,0.032 0.373,0 0.907,0.011 1.601,0.011 0.918,0 2.007,-0.021 3.267,-0.043 1.26,-0.032 2.05,-0.042 2.37,-0.042 0.983,0 1.698,0.139 2.125,0.438 0.427,0.288 0.651,0.768 0.651,1.441 0,0.235 -0.043,0.502 -0.128,0.801 -0.085,0.298 -0.213,0.64 -0.374,1.024 C 8.733,-8.947 7.847,-9.075 6.651,-9.16 5.445,-9.246 3.918,-9.278 2.071,-9.278 h -2.05 c -0.427,0 -0.832,0.011 -1.206,0.032 l 0.171,9.225 c 0.235,0 0.576,0.01 1.014,0.021"
             style="fill:#7ea6ac;fill-opacity:1;fill-rule:nonzero;stroke:none"
             id="path74" />
        </g>
        <g
           id="g76"
           transform="translate(583.6749,220.4895)">
          <path
             d="m 0,0 c -1.591,-1.335 -3.811,-1.996 -6.651,-1.996 -0.107,0 -0.278,0 -0.491,0.01 -0.214,0.022 -0.374,0.022 -0.492,0.022 0,1.996 0.032,4.046 0.086,6.181 0.053,2.125 0.139,4.345 0.256,6.673 0.523,0.107 1.036,0.192 1.516,0.245 0.491,0.054 0.972,0.086 1.441,0.086 2.136,0 3.801,-0.491 4.976,-1.484 C 1.815,8.755 2.402,7.356 2.402,5.552 2.402,3.182 1.601,1.335 0,0 m 8.509,-11.434 c -1.164,0.95 -2.53,2.284 -4.11,3.993 -0.203,0.235 -0.513,0.576 -0.919,1.035 -0.8,0.918 -1.537,1.634 -2.21,2.157 -0.587,0.459 -0.491,1.356 0.161,1.719 1.398,0.779 2.498,1.74 3.331,2.893 1.131,1.591 1.708,3.512 1.708,5.744 0,2.552 -0.908,4.559 -2.701,6.053 -1.805,1.484 -4.271,2.232 -7.399,2.232 -0.214,0 -1.313,-0.064 -3.267,-0.182 -1.452,-0.085 -2.861,-0.16 -4.217,-0.213 -0.694,-0.022 -1.153,-0.652 -0.972,-1.314 0.214,-0.768 0.374,-1.697 0.492,-2.775 0.192,-1.762 0.298,-4.484 0.298,-8.157 0,-2.851 -0.074,-5.893 -0.202,-9.128 -0.129,-3.246 -0.203,-5.072 -0.203,-5.488 0,-1.206 0.139,-2.007 0.416,-2.402 0.288,-0.384 0.801,-0.587 1.57,-0.587 0.469,0 0.992,0.096 1.558,0.267 0.555,0.17 1.175,0.437 1.837,0.8 -0.395,0.79 -0.694,1.911 -0.897,3.353 -0.192,1.43 -0.331,3.704 -0.417,6.801 0.481,0.064 0.876,0.096 1.196,0.117 0.321,0.021 0.587,0.032 0.812,0.032 1.943,0 4.558,-1.986 7.836,-5.968 1.078,-1.271 1.922,-2.274 2.552,-3 0.832,-0.982 1.558,-1.698 2.178,-2.125 0.619,-0.427 1.185,-0.651 1.697,-0.651 0.609,0 1.142,0.235 1.58,0.705 0.449,0.459 0.876,1.238 1.281,2.327 -0.822,0.214 -1.815,0.801 -2.989,1.762"
             style="fill:#7ea6ac;fill-opacity:1;fill-rule:nonzero;stroke:none"
             id="path78" />
        </g>
        <g
           id="g80"
           transform="translate(470.2714,216.6247)">
          <path
             d="m 0,0 c -0.181,0 -0.224,0.064 -0.256,0.235 -0.043,0.16 -0.075,0.32 -0.118,0.48 l -0.01,0.011 C -0.342,0.555 -0.31,0.384 -0.267,0.214 -0.213,-0.021 -0.149,-0.085 0.182,-0.043 0.342,-0.021 0.502,0 0.662,0.011 0.438,0 0.224,0 0,0 M 1.537,9.609 V 9.545 L 1.569,9.577 C 1.559,9.598 1.548,9.598 1.537,9.609"
             style="fill:#7ea6ac;fill-opacity:1;fill-rule:nonzero;stroke:none"
             id="path82" />
        </g>
        <g
           id="g84"
           transform="translate(473.3568,216.8275)">
          <path
             d="m 0,0 c -0.053,-0.246 -0.128,-0.288 -0.512,-0.235 -0.118,0.021 -0.225,0.032 -0.342,0.032 -0.011,0.011 -0.011,0.011 -0.021,0 -0.502,0.011 -1.004,0.011 -1.506,0.011 h -0.043 c -0.16,-0.011 -0.32,-0.032 -0.48,-0.054 -0.331,-0.042 -0.395,0.022 -0.448,0.257 -0.043,0.17 -0.075,0.341 -0.118,0.512 -0.299,1.292 -0.619,2.573 -0.918,3.865 -0.021,0.107 0.011,0.235 0.053,0.331 0.705,1.281 1.431,2.562 2.114,3.854 0.054,0.075 0.086,0.171 0.118,0.256 0.042,0.128 0.064,0.246 0.096,0.374 0.053,0.096 0.128,0.171 0.213,0.203 v -2.52 c 0,-0.779 -0.192,-1.548 -0.491,-2.274 -0.042,-0.117 -0.042,-0.245 -0.01,-0.384 0.064,-0.299 0.309,-0.491 0.619,-0.491 0.309,0 0.555,0.192 0.63,0.491 0.032,0.139 0.032,0.267 -0.022,0.373 -0.288,0.737 -0.48,1.495 -0.48,2.285 v 2.52 c 0.011,-0.011 0.021,-0.011 0.032,-0.032 h 0.011 c 0.021,0.01 0.032,0.021 0.053,0.021 0.107,0.011 0.288,-0.128 0.31,-0.235 0.01,-0.064 -0.043,-0.171 -0.107,-0.245 V 8.904 C -1.164,8.648 -1.078,8.402 -0.961,8.167 -0.331,7.014 0.342,5.872 0.982,4.708 1.036,4.623 1.068,4.484 1.046,4.388 0.694,2.925 0.342,1.463 0,0 M 7.217,-2.456 C 7.11,-2.21 6.993,-1.964 6.886,-1.708 5.915,0.513 4.826,3.128 3.63,6.139 2.488,9.011 1.591,11.242 0.94,12.844 c -0.118,0.288 -0.235,0.565 -0.353,0.832 -0.608,1.41 -1.142,2.445 -1.623,3.096 -0.565,0.769 -1.142,1.154 -1.74,1.154 -0.427,0 -0.854,-0.15 -1.281,-0.438 -0.427,-0.289 -0.897,-0.758 -1.409,-1.399 0.288,-0.299 0.566,-0.608 0.822,-0.907 0.256,-0.299 0.502,-0.609 0.715,-0.929 -0.085,-0.192 -0.16,-0.385 -0.245,-0.577 C -5.05,11.669 -5.989,9.598 -6.993,7.441 -7.238,6.918 -7.484,6.395 -7.73,5.861 -8.755,3.694 -9.843,1.452 -10.997,-0.865 c -2.69,-5.423 -4.046,-8.487 -4.046,-9.192 0,-0.715 0.246,-1.249 0.715,-1.623 0.47,-0.363 1.154,-0.544 2.061,-0.544 0.128,0 0.267,0 0.406,0.01 0.149,0 0.384,0.022 0.704,0.064 l 0.022,0.342 c 0,0.982 0.213,2.167 0.651,3.545 0.395,1.249 1.078,2.936 2.039,5.049 0.139,0.299 0.395,0.524 0.715,0.609 0.075,0.021 0.171,0.032 0.257,0.032 H 3.128 c 0.182,-0.48 0.417,-1.121 0.716,-1.9 0.074,-0.182 0.149,-0.374 0.224,-0.577 0.363,-0.971 0.715,-1.847 1.067,-2.626 1.346,-3.032 2.584,-4.548 3.705,-4.548 0.491,0 0.95,0.117 1.399,0.373 0.448,0.246 0.928,0.662 1.462,1.249 -0.993,0.94 -2.487,3.662 -4.484,8.146"
             style="fill:#7ea6ac;fill-opacity:1;fill-rule:nonzero;stroke:none"
             id="path86" />
        </g>
        <g
           id="g88"
           transform="translate(470.9333,216.6353)">
          <path
             d="m 0,0 c -0.16,-0.011 -0.32,-0.032 -0.48,-0.053 -0.331,-0.043 -0.395,0.021 -0.449,0.256 -0.043,0.171 -0.075,0.342 -0.117,0.512 l 0.01,-0.01 c 0.043,-0.16 0.075,-0.321 0.118,-0.481 0.032,-0.171 0.075,-0.235 0.256,-0.235 0.224,0 0.438,0 0.662,0.011"
             style="fill:#000000;fill-opacity:1;fill-rule:nonzero;stroke:none"
             id="path90" />
        </g>
        <g
           id="g92"
           transform="translate(471.8408,226.2013)">
          <path
             d="M 0,0 -0.032,-0.032 V 0.032 C -0.021,0.021 -0.011,0.021 0,0"
             style="fill:#000000;fill-opacity:1;fill-rule:nonzero;stroke:none"
             id="path94" />
        </g>
        <g
           id="g96"
           transform="translate(470.2714,216.6247)">
          <path
             d="m 0,0 c -0.181,0 -0.224,0.064 -0.256,0.235 -0.043,0.16 -0.075,0.32 -0.118,0.48 l -0.01,0.011 C -0.342,0.555 -0.31,0.384 -0.267,0.214 -0.213,-0.021 -0.149,-0.085 0.182,-0.043 0.342,-0.021 0.502,0 0.662,0.011 0.438,0 0.224,0 0,0 M 1.537,9.609 V 9.545 L 1.569,9.577 C 1.559,9.598 1.548,9.598 1.537,9.609 M 1.634,9.598 C 1.612,9.598 1.601,9.587 1.58,9.577 1.644,9.545 1.698,9.481 1.74,9.406 L 1.836,9.118 C 1.9,9.192 1.954,9.299 1.943,9.363 1.922,9.47 1.74,9.609 1.634,9.598 M 0.705,0.011 C 1.206,0.011 1.708,0.011 2.21,0 1.708,0.053 1.206,0.053 0.705,0.011"
             style="fill:#7ea6ac;fill-opacity:1;fill-rule:nonzero;stroke:none"
             id="path98" />
        </g>
      </g>
    </g>
  </g>
</svg>
